<?xml version="1.0" encoding="UTF-8" standalone="no"?>
<!-- Created with Inkscape (http://www.inkscape.org/) -->

<svg
   width="210mm"
   height="297mm"
   viewBox="0 0 210 297"
   version="1.1"
   id="svg5"
   inkscape:version="1.1 (c68e22c387, 2021-05-23)"
   sodipodi:docname="Agilite.svg"
   xmlns:inkscape="http://www.inkscape.org/namespaces/inkscape"
   xmlns:sodipodi="http://sodipodi.sourceforge.net/DTD/sodipodi-0.dtd"
   xmlns:xlink="http://www.w3.org/1999/xlink"
   xmlns="http://www.w3.org/2000/svg"
   xmlns:svg="http://www.w3.org/2000/svg">
  <sodipodi:namedview
     id="namedview7"
     pagecolor="#ffffff"
     bordercolor="#666666"
     borderopacity="1.0"
     inkscape:pageshadow="2"
     inkscape:pageopacity="0.0"
     inkscape:pagecheckerboard="0"
     inkscape:document-units="mm"
     showgrid="false"
     inkscape:zoom="0.37059484"
     inkscape:cx="617.92549"
     inkscape:cy="257.69382"
     inkscape:window-width="1920"
     inkscape:window-height="1017"
     inkscape:window-x="1912"
     inkscape:window-y="1"
     inkscape:window-maximized="1"
     inkscape:current-layer="layer1" />
  <defs
     id="defs2">
    <linearGradient
       inkscape:collect="always"
       id="linearGradient4578">
      <stop
         style="stop-color:#002bff;stop-opacity:1;"
         offset="0"
         id="stop4574" />
      <stop
         style="stop-color:#002bff;stop-opacity:0;"
         offset="1"
         id="stop4576" />
    </linearGradient>
    <inkscape:path-effect
       effect="mirror_symmetry"
       start_point="63.808595,119.04989"
       end_point="63.808595,198.92499"
       center_point="63.808595,158.98744"
       id="path-effect4193"
       is_visible="true"
       lpeversion="1.1"
       mode="free"
       discard_orig_path="false"
       fuse_paths="false"
       oposite_fuse="false"
       split_items="false"
       split_open="false" />
    <inkscape:path-effect
       effect="fillet_chamfer"
       id="path-effect3941"
       is_visible="true"
       lpeversion="1"
       satellites_param="F,0,0,1,0,2,0,1 @ F,0,0,1,0,2,0,1 @ F,0,0,1,0,2,0,1 @ F,0,0,1,0,2,0,1"
       unit="mm"
       method="auto"
       mode="F"
       radius="2"
       chamfer_steps="1"
       flexible="false"
       use_knot_distance="true"
       apply_no_radius="true"
       apply_with_radius="true"
       only_selected="false"
       hide_knots="false" />
    <inkscape:path-effect
       effect="mirror_symmetry"
       start_point="63.719352,117.26502"
       end_point="63.719352,197.14013"
       center_point="63.719352,157.20258"
       id="path-effect2439"
       is_visible="true"
       lpeversion="1.1"
       mode="free"
       discard_orig_path="false"
       fuse_paths="false"
       oposite_fuse="false"
       split_items="false"
       split_open="false" />
    <linearGradient
       inkscape:collect="always"
       xlink:href="#linearGradient4578"
       id="linearGradient4580"
       x1="75.710884"
       y1="560.5481"
       x2="95.663498"
       y2="131.82573"
       gradientUnits="userSpaceOnUse" />
  </defs>
  <g
     inkscape:label="Calque 1"
     inkscape:groupmode="layer"
     id="layer1">
    <path
       style="fill:none;stroke:#162d50;stroke-width:1.5;stroke-linecap:round;stroke-linejoin:miter;stroke-miterlimit:4;stroke-dasharray:none;stroke-opacity:1"
       d="m 57.070763,117.30964 c -1.742973,-0.25747 -2.363705,0.24387 -2.48709,0.77559 -0.195387,0.842 0.919579,2.51876 1.287668,3.63279 2.280553,6.90215 4.099353,18.10444 0.708583,27.85289 -4.283652,12.3155 -11.949318,7.97273 -15.528244,15.52824 -3.212739,6.78245 -1.702063,15.75605 2.855769,27.12982 1.922759,4.79812 8.739409,5.11155 14.469097,4.59183 2.556206,-0.23186 5.342804,-0.30818 5.342804,-0.30818 m 6.648591,-79.20298 c 1.742973,-0.25747 2.363705,0.24387 2.48709,0.77559 0.195387,0.842 -0.919579,2.51876 -1.287668,3.63279 -2.280553,6.90215 -4.099353,18.10444 -0.708583,27.85289 4.283652,12.3155 11.949318,7.97273 15.528244,15.52824 3.212739,6.78245 1.702063,15.75605 -2.855769,27.12982 -1.922759,4.79812 -8.739409,5.11155 -14.469097,4.59183 -2.556206,-0.23186 -5.342804,-0.30818 -5.342804,-0.30818"
       id="path1302"
       sodipodi:nodetypes="cssssssc"
       inkscape:path-effect="#path-effect2439"
       inkscape:original-d="m 57.070763,117.30964 c -1.742973,-0.25747 -2.363705,0.24387 -2.48709,0.77559 -0.195387,0.842 0.919579,2.51876 1.287668,3.63279 2.280553,6.90215 4.099353,18.10444 0.708583,27.85289 -4.283652,12.3155 -11.949318,7.97273 -15.528244,15.52824 -3.212739,6.78245 -1.702063,15.75605 2.855769,27.12982 1.922759,4.79812 8.739409,5.11155 14.469097,4.59183 2.556206,-0.23186 5.342804,-0.30818 5.342804,-0.30818"
       transform="matrix(3.1691078,0,0,3.1691078,-97.827468,-334.77444)" />
    <path
       style="fill:#d38d5f;stroke:#502d16;stroke-width:4.75366;stroke-linecap:round;stroke-linejoin:round;stroke-miterlimit:4;stroke-dasharray:none;stroke-opacity:1"
       d="m 107.21688,61.456387 -7.918641,1.131221 A 2.1741232,2.1741232 34.481293 0 1 96.871588,60.920982 L 85.321013,10.518486 a 1.2415403,1.2415403 135.26181 0 1 1.498548,-1.4849153 l 34.007269,8.1211433 a 1.8689302,1.8689302 60.371335 0 1 1.35016,2.373951 l -12.38507,39.735482 a 3.1662336,3.1662336 139.59081 0 1 -2.57504,2.19224 z"
       id="path3576"
       inkscape:path-effect="#path-effect3941"
       inkscape:original-d="M 109.19678,61.173548 97.31834,62.870447 84.874261,8.5690211 122.77213,17.619264 Z" />
    <path
       style="fill:#ff0000;fill-opacity:1;stroke:none;stroke-width:0.838492px;stroke-linecap:butt;stroke-linejoin:miter;stroke-opacity:1"
       d="m 95.756993,104.39026 17.598577,-0.39994 c 1.51034,80.15593 41.90077,67.35641 51.59587,89.99277 8.04807,18.79085 -0.21899,66.67517 -15.59876,77.19382 -7.19943,3.59969 -37.197,2.79975 -42.79656,1.59986 -5.59954,-1.19992 -29.597621,0.39994 -41.596656,-0.79995 -27.164619,-7.72156 -34.287997,-81.76214 -13.695955,-87.08415 43.55108,-11.25575 40.486956,-37.10943 44.493484,-80.50241 z"
       id="potion"
       sodipodi:nodetypes="ccscscsc" />
    <path
       style="fill:url(#linearGradient4580);fill-opacity:1;stroke:none;stroke-width:0.264583px;stroke-linecap:butt;stroke-linejoin:miter;stroke-opacity:1"
       d="m 81.278182,272.61007 c -20.862213,0.37642 -25.746504,-20.19335 -24.232003,-31.29969 1.514499,-11.10633 5.553168,-18.67884 14.135336,-22.21267 8.582167,-3.53383 21.707837,-13.12567 20.698171,-17.66917 -1.009668,-4.5435 -8.077335,-12.116 -9.087003,-16.6595 -1.009666,-4.5435 1.988182,-27.57181 13.630502,-25.24168 -8.730207,12.07325 3.151928,30.60363 13.630505,42.91085 6.56283,7.5725 6.56283,10.09667 3.029,37.35767 -3.53384,27.26101 5.42696,33.69763 5.42696,33.69763 -12.79428,-0.67827 -25.735293,-1.50328 -37.231468,-0.88344 z"
       id="path866"
       sodipodi:nodetypes="cssssccscc" />
    <path
       style="fill:#f6ff00;fill-opacity:0.10843375;stroke:none;stroke-width:0.264583px;stroke-linecap:butt;stroke-linejoin:miter;stroke-opacity:1"
       d="m 99.594949,271.65503 c 4.283651,-0.35697 33.190981,-16.06458 32.302221,-34.09117 6.81765,-22.81249 -23.48398,-48.05515 -9.81304,-67.64559 2.85577,-2.85577 -1.42788,8.92427 11.42308,20.70432 12.85096,11.78005 27.1298,34.6262 23.91706,46.04928 -3.21274,11.42307 -8.07159,34.50504 -8.07159,34.50504 -20.24612,5.03305 -39.63505,1.77931 -49.757731,0.47812 z"
       id="path4729"
       sodipodi:nodetypes="cccsscc" />
    <path
       style="fill:#e3dedb;fill-opacity:0.561265;stroke:none;stroke-width:0.838492px;stroke-linecap:butt;stroke-linejoin:miter;stroke-opacity:1"
       d="m 99.855174,133.65678 c -1.69693,14.14097 16.969206,27.71635 22.625586,39.02915 5.65641,11.31279 0.49213,49.88514 0.49213,49.88514 0,0 14.59846,-24.23673 19.27686,-30.84746 14.0959,-19.918 -21.46592,-37.70379 -24.85975,-40.532 -3.39383,-2.8282 -17.534826,-17.53483 -17.534826,-17.53483 z"
       id="path6817"
       sodipodi:nodetypes="cscssc" />
  </g>
</svg>
