<?xml version="1.0" encoding="UTF-8" standalone="no"?>
<!-- Created with Inkscape (http://www.inkscape.org/) -->

<svg
   width="210mm"
   height="297mm"
   viewBox="0 0 210 297"
   version="1.1"
   id="svg5"
   inkscape:version="1.1 (c68e22c387, 2021-05-23)"
   sodipodi:docname="Amour.svg"
   xmlns:inkscape="http://www.inkscape.org/namespaces/inkscape"
   xmlns:sodipodi="http://sodipodi.sourceforge.net/DTD/sodipodi-0.dtd"
   xmlns:xlink="http://www.w3.org/1999/xlink"
   xmlns="http://www.w3.org/2000/svg"
   xmlns:svg="http://www.w3.org/2000/svg">
  <sodipodi:namedview
     id="namedview7"
     pagecolor="#ffffff"
     bordercolor="#666666"
     borderopacity="1.0"
     inkscape:pageshadow="2"
     inkscape:pageopacity="0.0"
     inkscape:pagecheckerboard="0"
     inkscape:document-units="mm"
     showgrid="false"
     inkscape:zoom="0.37059485"
     inkscape:cx="369.67594"
     inkscape:cy="403.4055"
     inkscape:window-width="1920"
     inkscape:window-height="1017"
     inkscape:window-x="1912"
     inkscape:window-y="1"
     inkscape:window-maximized="1"
     inkscape:current-layer="layer1" />
  <defs
     id="defs2">
    <linearGradient
       inkscape:collect="always"
       id="linearGradient31642">
      <stop
         style="stop-color:#ff00f2;stop-opacity:1;"
         offset="0"
         id="stop31638" />
      <stop
         style="stop-color:#ff00f2;stop-opacity:0;"
         offset="1"
         id="stop31640" />
    </linearGradient>
    <inkscape:path-effect
       effect="mirror_symmetry"
       start_point="145.28726,114.40028"
       end_point="145.28726,197.34933"
       center_point="145.28726,155.8748"
       id="path-effect15835"
       is_visible="true"
       lpeversion="1.1"
       mode="free"
       discard_orig_path="false"
       fuse_paths="false"
       oposite_fuse="false"
       split_items="false"
       split_open="false" />
    <inkscape:path-effect
       effect="mirror_symmetry"
       start_point="54.4381,120.83473"
       end_point="54.4381,184.43222"
       center_point="54.4381,152.63347"
       id="path-effect9946"
       is_visible="true"
       lpeversion="1.1"
       mode="free"
       discard_orig_path="false"
       fuse_paths="false"
       oposite_fuse="false"
       split_items="false"
       split_open="false" />
    <inkscape:path-effect
       effect="fillet_chamfer"
       id="path-effect5659"
       is_visible="true"
       lpeversion="1"
       satellites_param="F,0,0,1,0,0,0,1 @ F,0,0,1,0,0,0,1 @ F,0,0,1,0,0,0,1 @ F,0,0,1,0,0,0,1 @ F,0,0,1,0,0,0,1 @ F,0,0,1,0,0,0,1 @ F,0,0,1,0,0,0,1 @ F,0,0,1,0,0,0,1"
       unit="mm"
       method="auto"
       mode="F"
       radius="2"
       chamfer_steps="1"
       flexible="false"
       use_knot_distance="true"
       apply_no_radius="true"
       apply_with_radius="true"
       only_selected="false"
       hide_knots="false" />
    <inkscape:path-effect
       effect="fillet_chamfer"
       id="path-effect1700"
       is_visible="true"
       lpeversion="1"
       satellites_param="F,0,0,1,0,0,0,1 @ F,0,0,1,0,1,0,1 @ F,0,0,1,0,1,0,1 @ F,0,0,1,0,1,0,1 @ F,0,0,1,0,1,0,1 @ F,0,0,1,0,1,0,1 @ F,0,0,1,0,1,0,1 @ F,0,0,1,0,0,0,1 | F,0,0,1,0,0,0,1 @ F,0,0,1,0,1,0,1 @ F,0,0,1,0,1,0,1 @ F,0,0,1,0,1,0,1 @ F,0,0,1,0,1,0,1 @ F,0,0,1,0,1,0,1 @ F,0,0,1,0,1,0,1 @ F,0,0,1,0,0,0,1"
       unit="mm"
       method="auto"
       mode="F"
       radius="1"
       chamfer_steps="1"
       flexible="false"
       use_knot_distance="true"
       apply_no_radius="true"
       apply_with_radius="true"
       only_selected="false"
       hide_knots="false" />
    <inkscape:path-effect
       effect="mirror_symmetry"
       start_point="44.930176,116.61652"
       end_point="44.930176,196.38021"
       center_point="44.930176,156.49837"
       id="path-effect1048"
       is_visible="true"
       lpeversion="1.1"
       mode="free"
       discard_orig_path="false"
       fuse_paths="false"
       oposite_fuse="false"
       split_items="false"
       split_open="false" />
    <inkscape:path-effect
       effect="fillet_chamfer"
       id="path-effect843"
       is_visible="true"
       lpeversion="1"
       satellites_param="F,0,0,1,0,2,0,1 @ F,0,0,1,0,2,0,1 @ F,0,0,1,0,2,0,1 @ F,0,0,1,0,2,0,1"
       unit="mm"
       method="auto"
       mode="F"
       radius="2"
       chamfer_steps="1"
       flexible="false"
       use_knot_distance="true"
       apply_no_radius="true"
       apply_with_radius="true"
       only_selected="false"
       hide_knots="false" />
    <inkscape:path-effect
       effect="mirror_symmetry"
       start_point="63.719352,117.26502"
       end_point="63.719352,197.14013"
       center_point="63.719352,157.20258"
       id="path-effect837"
       is_visible="true"
       lpeversion="1.1"
       mode="free"
       discard_orig_path="false"
       fuse_paths="false"
       oposite_fuse="false"
       split_items="false"
       split_open="false" />
    <inkscape:path-effect
       effect="mirror_symmetry"
       start_point="63.808595,119.04989"
       end_point="63.808595,198.92499"
       center_point="63.808595,158.98744"
       id="path-effect4193"
       is_visible="true"
       lpeversion="1.1"
       mode="free"
       discard_orig_path="false"
       fuse_paths="false"
       oposite_fuse="false"
       split_items="false"
       split_open="false" />
    <inkscape:path-effect
       effect="fillet_chamfer"
       id="path-effect3941"
       is_visible="true"
       lpeversion="1"
       satellites_param="F,0,0,1,0,2,0,1 @ F,0,0,1,0,2,0,1 @ F,0,0,1,0,2,0,1 @ F,0,0,1,0,2,0,1"
       unit="mm"
       method="auto"
       mode="F"
       radius="2"
       chamfer_steps="1"
       flexible="false"
       use_knot_distance="true"
       apply_no_radius="true"
       apply_with_radius="true"
       only_selected="false"
       hide_knots="false" />
    <inkscape:path-effect
       effect="mirror_symmetry"
       start_point="63.719352,117.26502"
       end_point="63.719352,197.14013"
       center_point="63.719352,157.20258"
       id="path-effect2439"
       is_visible="true"
       lpeversion="1.1"
       mode="free"
       discard_orig_path="false"
       fuse_paths="false"
       oposite_fuse="false"
       split_items="false"
       split_open="false" />
    <linearGradient
       inkscape:collect="always"
       xlink:href="#linearGradient31642"
       id="linearGradient31644"
       x1="551.69763"
       y1="662.85864"
       x2="458.23114"
       y2="614.74792"
       gradientUnits="userSpaceOnUse"
       gradientTransform="matrix(3.4332691,0,0,3.4332691,-1145.4004,-1321.2957)" />
  </defs>
  <g
     inkscape:label="Calque 1"
     inkscape:groupmode="layer"
     id="layer1">
    <path
       style="fill:none;stroke:#550022;stroke-width:1.87629;stroke-linecap:round;stroke-linejoin:round;stroke-miterlimit:4;stroke-dasharray:none;stroke-opacity:1"
       d="m 141.05195,114.56766 c -0.67789,8.12485 -6.32554,-0.28433 -5.74496,2.84718 2.98311,16.09027 7.72554,25.69733 6.23206,32.33456 0,0 -16.51691,-10.62456 -25.9797,5.41055 -9.63222,16.32223 14.64163,44.34713 29.72791,42.06661 m 4.23531,-82.6589 c 0.67789,8.12485 6.32554,-0.28433 5.74496,2.84718 -2.98311,16.09027 -7.72554,25.69733 -6.23206,32.33456 0,0 16.51691,-10.62456 25.9797,5.41055 9.63222,16.32223 -14.64163,44.34713 -29.72791,42.06661"
       id="path15092"
       sodipodi:nodetypes="cscsc"
       inkscape:path-effect="#path-effect15835"
       inkscape:original-d="m 141.05195,114.56766 c -0.67789,8.12485 -6.32554,-0.28433 -5.74496,2.84718 2.98311,16.09027 7.72554,25.69733 6.23206,32.33456 0,0 -16.51691,-10.62456 -25.9797,5.41055 -9.63222,16.32223 14.64163,44.34713 29.72791,42.06661"
       transform="matrix(2.7436632,0,0,2.745789,-294.72404,-264.52731)" />
    <path
       id="potion"
       style="fill:#ff0000;fill-opacity:1;stroke:none;stroke-width:0.908384px;stroke-linecap:butt;stroke-linejoin:miter;stroke-opacity:1"
       d="m 107.20829,153.20049 a 6.1278899,6.2810875 0 0 0 -6.12805,6.28064 6.1278899,6.2810875 0 0 0 6.12805,6.2824 6.1278899,6.2810875 0 0 0 6.12806,-6.2824 6.1278899,6.2810875 0 0 0 -6.12806,-6.28064 z m -55.917175,1.5329 a 5.9746926,6.4342844 0 0 0 -5.973699,6.43321 5.9746926,6.4342844 0 0 0 5.973699,6.43499 5.9746926,6.4342844 0 0 0 5.975482,-6.43499 5.9746926,6.4342844 0 0 0 -5.975482,-6.43321 z m 83.186495,3.98306 a 3.9831284,4.4427203 0 0 0 -3.98305,4.44257 3.9831284,4.4427203 0 0 0 3.98305,4.44257 3.9831284,4.4427203 0 0 0 3.98306,-4.44257 3.9831284,4.4427203 0 0 0 -3.98306,-4.44257 z m -58.062177,11.03014 a 6.5874814,6.2810875 0 0 0 -6.383537,5.05644 l -35.439463,-0.46128 c -9.177012,42.78643 30.480312,89.03589 75.176017,86.76148 35.3306,-1.79783 67.00622,-36.04305 65.76571,-84.92343 l -26.57028,-0.34596 a 5.5151011,4.5959172 0 0 0 -4.37516,-1.79903 5.5151011,4.5959172 0 0 0 -4.17467,1.68725 l -57.586685,-0.75048 a 6.5874814,6.2810875 0 0 0 -6.411932,-5.22499 z" />
    <path
       id="path16888"
       style="opacity:0.985385;fill:#ff0066;fill-opacity:1;stroke:#2b0011;stroke-width:4.13678;stroke-linecap:round;stroke-linejoin:round;stroke-miterlimit:4;stroke-dasharray:none;stroke-opacity:1;paint-order:markers fill stroke"
       inkscape:transform-center-x="0.016867189"
       inkscape:transform-center-y="2.2837911"
       d="m 91.17378,12.769932 2.29047,15.78854 -9.884001,11.145456 13.620471,2.343721 c 5.50565,10.490285 0.58327,13.63722 -3.95115,24.668347 l 20.36595,0.21664 c -1.67231,-9.939486 -8.19281,-16.15669 -4.2279,-24.847565 l 13.62932,-2.260327 -9.83432,-11.205778 2.36321,-15.774327 -12.20286,7.412566 z"
       sodipodi:nodetypes="cccccccccccc" />
    <path
       id="path31484"
       style="fill:url(#linearGradient31644);fill-opacity:1;stroke:none;stroke-width:3.43326px;stroke-linecap:butt;stroke-linejoin:miter;stroke-opacity:1"
       d="M 662.19336 709.41602 A 410.15143 357.5333 0 0 1 302.2168 895.85742 A 410.15143 357.5333 0 0 1 193.13477 882.8125 C 247.42519 947.84093 328.66112 991.23468 414.87305 986.84766 C 537.6464 980.60022 648.73111 870.67705 662.19336 709.41602 z "
       transform="scale(0.26458333)" />
    <path
       style="fill:#ffffff;fill-opacity:0.470356;stroke:none;stroke-width:0.908384px;stroke-linecap:butt;stroke-linejoin:miter;stroke-opacity:1"
       d="m 56.653292,187.21035 c -6.278317,37.44656 9.172183,57.91753 55.151008,54.53823 C 85.285314,229.48573 65.229838,212.52223 56.653292,187.21035 Z"
       id="path18912"
       sodipodi:nodetypes="ccc" />
  </g>
</svg>
