<?xml version="1.0" encoding="UTF-8" standalone="no"?>
<!-- Created with Inkscape (http://www.inkscape.org/) -->

<svg
   width="210mm"
   height="297mm"
   viewBox="0 0 210 297"
   version="1.1"
   id="svg5"
   inkscape:version="1.1 (c68e22c387, 2021-05-23)"
   sodipodi:docname="Soin.svg"
   xmlns:inkscape="http://www.inkscape.org/namespaces/inkscape"
   xmlns:sodipodi="http://sodipodi.sourceforge.net/DTD/sodipodi-0.dtd"
   xmlns="http://www.w3.org/2000/svg"
   xmlns:svg="http://www.w3.org/2000/svg">
  <sodipodi:namedview
     id="namedview7"
     pagecolor="#ffffff"
     bordercolor="#666666"
     borderopacity="1.0"
     inkscape:pageshadow="2"
     inkscape:pageopacity="0.0"
     inkscape:pagecheckerboard="0"
     inkscape:document-units="mm"
     showgrid="false"
     inkscape:zoom="0.37059484"
     inkscape:cx="496.49909"
     inkscape:cy="848.63567"
     inkscape:window-width="1920"
     inkscape:window-height="1017"
     inkscape:window-x="1912"
     inkscape:window-y="1"
     inkscape:window-maximized="1"
     inkscape:current-layer="layer1" />
  <defs
     id="defs2">
    <inkscape:path-effect
       effect="mirror_symmetry"
       start_point="54.4381,120.83473"
       end_point="54.4381,184.43222"
       center_point="54.4381,152.63347"
       id="path-effect9946"
       is_visible="true"
       lpeversion="1.1"
       mode="free"
       discard_orig_path="false"
       fuse_paths="false"
       oposite_fuse="false"
       split_items="false"
       split_open="false" />
    <inkscape:path-effect
       effect="fillet_chamfer"
       id="path-effect5659"
       is_visible="true"
       lpeversion="1"
       satellites_param="F,0,0,1,0,0,0,1 @ F,0,0,1,0,0,0,1 @ F,0,0,1,0,0,0,1 @ F,0,0,1,0,0,0,1 @ F,0,0,1,0,0,0,1 @ F,0,0,1,0,0,0,1 @ F,0,0,1,0,0,0,1 @ F,0,0,1,0,0,0,1"
       unit="mm"
       method="auto"
       mode="F"
       radius="2"
       chamfer_steps="1"
       flexible="false"
       use_knot_distance="true"
       apply_no_radius="true"
       apply_with_radius="true"
       only_selected="false"
       hide_knots="false" />
    <inkscape:path-effect
       effect="fillet_chamfer"
       id="path-effect1700"
       is_visible="true"
       lpeversion="1"
       satellites_param="F,0,0,1,0,0,0,1 @ F,0,0,1,0,1,0,1 @ F,0,0,1,0,1,0,1 @ F,0,0,1,0,1,0,1 @ F,0,0,1,0,1,0,1 @ F,0,0,1,0,1,0,1 @ F,0,0,1,0,1,0,1 @ F,0,0,1,0,0,0,1 | F,0,0,1,0,0,0,1 @ F,0,0,1,0,1,0,1 @ F,0,0,1,0,1,0,1 @ F,0,0,1,0,1,0,1 @ F,0,0,1,0,1,0,1 @ F,0,0,1,0,1,0,1 @ F,0,0,1,0,1,0,1 @ F,0,0,1,0,0,0,1"
       unit="mm"
       method="auto"
       mode="F"
       radius="1"
       chamfer_steps="1"
       flexible="false"
       use_knot_distance="true"
       apply_no_radius="true"
       apply_with_radius="true"
       only_selected="false"
       hide_knots="false" />
    <inkscape:path-effect
       effect="mirror_symmetry"
       start_point="44.930176,116.61652"
       end_point="44.930176,196.38021"
       center_point="44.930176,156.49837"
       id="path-effect1048"
       is_visible="true"
       lpeversion="1.1"
       mode="free"
       discard_orig_path="false"
       fuse_paths="false"
       oposite_fuse="false"
       split_items="false"
       split_open="false" />
    <inkscape:path-effect
       effect="fillet_chamfer"
       id="path-effect843"
       is_visible="true"
       lpeversion="1"
       satellites_param="F,0,0,1,0,2,0,1 @ F,0,0,1,0,2,0,1 @ F,0,0,1,0,2,0,1 @ F,0,0,1,0,2,0,1"
       unit="mm"
       method="auto"
       mode="F"
       radius="2"
       chamfer_steps="1"
       flexible="false"
       use_knot_distance="true"
       apply_no_radius="true"
       apply_with_radius="true"
       only_selected="false"
       hide_knots="false" />
    <inkscape:path-effect
       effect="mirror_symmetry"
       start_point="63.719352,117.26502"
       end_point="63.719352,197.14013"
       center_point="63.719352,157.20258"
       id="path-effect837"
       is_visible="true"
       lpeversion="1.1"
       mode="free"
       discard_orig_path="false"
       fuse_paths="false"
       oposite_fuse="false"
       split_items="false"
       split_open="false" />
    <inkscape:path-effect
       effect="mirror_symmetry"
       start_point="63.808595,119.04989"
       end_point="63.808595,198.92499"
       center_point="63.808595,158.98744"
       id="path-effect4193"
       is_visible="true"
       lpeversion="1.1"
       mode="free"
       discard_orig_path="false"
       fuse_paths="false"
       oposite_fuse="false"
       split_items="false"
       split_open="false" />
    <inkscape:path-effect
       effect="fillet_chamfer"
       id="path-effect3941"
       is_visible="true"
       lpeversion="1"
       satellites_param="F,0,0,1,0,2,0,1 @ F,0,0,1,0,2,0,1 @ F,0,0,1,0,2,0,1 @ F,0,0,1,0,2,0,1"
       unit="mm"
       method="auto"
       mode="F"
       radius="2"
       chamfer_steps="1"
       flexible="false"
       use_knot_distance="true"
       apply_no_radius="true"
       apply_with_radius="true"
       only_selected="false"
       hide_knots="false" />
    <inkscape:path-effect
       effect="mirror_symmetry"
       start_point="63.719352,117.26502"
       end_point="63.719352,197.14013"
       center_point="63.719352,157.20258"
       id="path-effect2439"
       is_visible="true"
       lpeversion="1.1"
       mode="free"
       discard_orig_path="false"
       fuse_paths="false"
       oposite_fuse="false"
       split_items="false"
       split_open="false" />
  </defs>
  <g
     inkscape:label="Calque 1"
     inkscape:groupmode="layer"
     id="layer1">
    <path
       style="fill:none;stroke:#23024d;stroke-width:1.5;stroke-linecap:round;stroke-linejoin:round;stroke-miterlimit:4;stroke-dasharray:none;stroke-opacity:1"
       d="m 49.529746,120.74549 c -2.714892,2.65118 -3.777783,5.95 1.249399,8.83504 0,0 -3.837416,1.6979 -1.427886,4.46214 0,0 -21.150539,3.74819 -22.935394,23.91706 -1.784856,20.16887 20.080916,28.18255 22.846154,26.41587 3.212741,-2.05259 5.176081,-1.60637 5.176081,-1.60637 m 4.908354,-62.02374 c 2.714892,2.65118 3.777783,5.95 -1.249399,8.83504 0,0 3.837416,1.6979 1.427886,4.46214 0,0 21.150539,3.74819 22.935394,23.91706 1.784856,20.16887 -20.080916,28.18255 -22.846154,26.41587 -3.212741,-2.05259 -5.176081,-1.60637 -5.176081,-1.60637"
       id="path9925"
       inkscape:path-effect="#path-effect9946"
       inkscape:original-d="m 49.529746,120.74549 c -2.714892,2.65118 -3.777783,5.95 1.249399,8.83504 0,0 -3.837416,1.6979 -1.427886,4.46214 0,0 -21.150539,3.74819 -22.935394,23.91706 -1.784856,20.16887 20.080916,28.18255 22.846154,26.41587 3.212741,-2.05259 5.176081,-1.60637 5.176081,-1.60637"
       sodipodi:nodetypes="cccssc"
       transform="matrix(3.3736261,0,0,3.3736261,-77.097909,-355.12837)" />
    <path
       style="fill:#d40000;stroke:none;stroke-width:0.892604px;stroke-linecap:butt;stroke-linejoin:miter;stroke-opacity:1"
       d="m 79.459425,254.8431 c 0,0 -33.067726,-11.20138 -44.558628,-27.09649 -11.512752,-10.29992 -22.390264,-73.05986 8.430014,-90.92368 l 127.654439,-1.8064 c 27.23451,26.2717 16.36715,73.50568 3.61287,94.53652 -3.78019,6.08282 -31.14043,30.05516 -43.95648,27.69862 -16.6426,-9.71362 -28.20796,-10.33865 -51.182215,-2.40857 z"
       id="potion"
       sodipodi:nodetypes="ccccccc" />
    <path
       id="path11868"
       style="fill:#de8787;fill-opacity:0.371542;stroke:none;stroke-width:0.892604px;stroke-linecap:butt;stroke-linejoin:miter;stroke-opacity:1"
       d="m 91.724163,156.65864 a 3.6191286,3.6191286 0 0 0 -3.61923,3.61923 3.6191286,3.6191286 0 0 0 3.61923,3.61922 3.6191286,3.6191286 0 0 0 3.619236,-3.61922 3.6191286,3.6191286 0 0 0 -3.619236,-3.61923 z m 50.880247,0.42538 a 5.5351377,5.5351377 0 0 0 -5.5352,5.5352 5.5351377,5.5351377 0 0 0 5.5352,5.53522 5.5351377,5.5351377 0 0 0 5.5352,-5.53522 5.5351377,5.5351377 0 0 0 -5.5352,-5.5352 z m 18.73424,9.36711 c 0.67415,31.91933 -12.31225,51.81755 -40.02252,58.75855 49.45579,5.75776 55.09051,-19.23646 40.02252,-58.75855 z" />
    <path
       id="path12474"
       style="opacity:0.985385;fill:#000000;fill-opacity:0.0632411;stroke:none;stroke-width:5.06044;stroke-linecap:round;stroke-linejoin:round;stroke-miterlimit:4;stroke-dasharray:none;stroke-opacity:1;paint-order:markers fill stroke"
       d="m 174.53832,152.82676 a 3.8320182,3.8320182 0 0 0 -3.83192,3.83194 3.8320182,3.8320182 0 0 0 3.83192,3.83192 3.8320182,3.8320182 0 0 0 3.83193,-3.83192 3.8320182,3.8320182 0 0 0 -3.83193,-3.83194 z m -129.011094,5.10982 a 2.554679,2.128899 0 0 0 -2.555788,2.12866 2.554679,2.128899 0 0 0 2.555788,2.12865 2.554679,2.128899 0 0 0 2.554029,-2.12865 2.554679,2.128899 0 0 0 -2.554029,-2.12866 z m 59.609294,18.30887 a 2.9804586,3.1933486 0 0 0 -2.98117,3.19211 2.9804586,3.1933486 0 0 0 2.98117,3.19385 2.9804586,3.1933486 0 0 0 2.97943,-3.19385 2.9804586,3.1933486 0 0 0 -2.97943,-3.19211 z m -12.986359,17.88174 a 4.0449081,4.0449081 0 0 0 -4.046371,4.04461 4.0449081,4.0449081 0 0 0 4.046371,4.04637 4.0449081,4.0449081 0 0 0 4.044616,-4.04637 4.0449081,4.0449081 0 0 0 -4.044616,-4.04461 z m -44.706976,2.98116 a 2.7675688,2.9804586 0 0 0 -2.768469,2.97942 2.7675688,2.9804586 0 0 0 2.768469,2.98117 2.7675688,2.9804586 0 0 0 2.766728,-2.98117 2.7675688,2.9804586 0 0 0 -2.766728,-2.97942 z m 31.507921,24.69483 a 7.0253671,7.0253671 0 0 0 -7.025786,7.02578 7.0253671,7.0253671 0 0 0 7.025786,7.02579 7.0253671,7.0253671 0 0 0 7.024035,-7.02579 7.0253671,7.0253671 0 0 0 -7.024035,-7.02578 z m 71.955834,8.08923 a 2.3417891,2.7675688 0 0 0 -2.34135,2.76848 2.3417891,2.7675688 0 0 0 2.34135,2.76673 2.3417891,2.7675688 0 0 0 2.34135,-2.76673 2.3417891,2.7675688 0 0 0 -2.34135,-2.76848 z" />
    <path
       style="fill:#50162d;stroke:#280b17;stroke-width:5.06044;stroke-linecap:butt;stroke-linejoin:miter;stroke-miterlimit:4;stroke-dasharray:none;stroke-opacity:1"
       d="m 101.13659,70.587152 7.82788,0.300927 c 5.28348,-13.765608 7.05927,-21.508759 9.33322,-30.10719 -7.3775,-14.202825 -15.27381,-10.182034 -21.677171,-1.806402 0.325017,10.537551 0.309021,21.075114 4.516071,31.612665 z"
       id="path14359"
       sodipodi:nodetypes="ccccc" />
  </g>
</svg>
