<?xml version="1.0" encoding="UTF-8" standalone="no"?>
<!-- Created with Inkscape (http://www.inkscape.org/) -->

<svg
   width="210mm"
   height="297mm"
   viewBox="0 0 210 297"
   version="1.1"
   id="svg5"
   inkscape:version="1.1 (c68e22c387, 2021-05-23)"
   sodipodi:docname="Soin.svg"
   xmlns:inkscape="http://www.inkscape.org/namespaces/inkscape"
   xmlns:sodipodi="http://sodipodi.sourceforge.net/DTD/sodipodi-0.dtd"
   xmlns="http://www.w3.org/2000/svg"
   xmlns:svg="http://www.w3.org/2000/svg">
  <sodipodi:namedview
     id="namedview7"
     pagecolor="#ffffff"
     bordercolor="#666666"
     borderopacity="1.0"
     inkscape:pageshadow="2"
     inkscape:pageopacity="0.0"
     inkscape:pagecheckerboard="0"
     inkscape:document-units="mm"
     showgrid="false"
     inkscape:zoom="0.74118968"
     inkscape:cx="570.70411"
     inkscape:cy="721.13794"
     inkscape:window-width="1920"
     inkscape:window-height="1017"
     inkscape:window-x="1912"
     inkscape:window-y="1"
     inkscape:window-maximized="1"
     inkscape:current-layer="layer1"
     showguides="true"
     inkscape:guide-bbox="true">
    <sodipodi:guide
       position="-23.917067,90.13522"
       orientation="1,0"
       id="guide1569" />
  </sodipodi:namedview>
  <defs
     id="defs2">
    <inkscape:path-effect
       effect="mirror_symmetry"
       start_point="54.4381,120.83473"
       end_point="54.4381,184.43222"
       center_point="54.4381,152.63347"
       id="path-effect9946"
       is_visible="true"
       lpeversion="1.1"
       mode="free"
       discard_orig_path="false"
       fuse_paths="false"
       oposite_fuse="false"
       split_items="false"
       split_open="false" />
    <inkscape:path-effect
       effect="fillet_chamfer"
       id="path-effect5659"
       is_visible="true"
       lpeversion="1"
       satellites_param="F,0,0,1,0,0,0,1 @ F,0,0,1,0,0,0,1 @ F,0,0,1,0,0,0,1 @ F,0,0,1,0,0,0,1 @ F,0,0,1,0,0,0,1 @ F,0,0,1,0,0,0,1 @ F,0,0,1,0,0,0,1 @ F,0,0,1,0,0,0,1"
       unit="mm"
       method="auto"
       mode="F"
       radius="2"
       chamfer_steps="1"
       flexible="false"
       use_knot_distance="true"
       apply_no_radius="true"
       apply_with_radius="true"
       only_selected="false"
       hide_knots="false" />
    <inkscape:path-effect
       effect="fillet_chamfer"
       id="path-effect1700"
       is_visible="true"
       lpeversion="1"
       satellites_param="F,0,0,1,0,0,0,1 @ F,0,0,1,0,1,0,1 @ F,0,0,1,0,1,0,1 @ F,0,0,1,0,1,0,1 @ F,0,0,1,0,1,0,1 @ F,0,0,1,0,1,0,1 @ F,0,0,1,0,1,0,1 @ F,0,0,1,0,0,0,1 | F,0,0,1,0,0,0,1 @ F,0,0,1,0,1,0,1 @ F,0,0,1,0,1,0,1 @ F,0,0,1,0,1,0,1 @ F,0,0,1,0,1,0,1 @ F,0,0,1,0,1,0,1 @ F,0,0,1,0,1,0,1 @ F,0,0,1,0,0,0,1"
       unit="mm"
       method="auto"
       mode="F"
       radius="1"
       chamfer_steps="1"
       flexible="false"
       use_knot_distance="true"
       apply_no_radius="true"
       apply_with_radius="true"
       only_selected="false"
       hide_knots="false" />
    <inkscape:path-effect
       effect="mirror_symmetry"
       start_point="44.930176,116.61652"
       end_point="44.930176,196.38021"
       center_point="44.930176,156.49837"
       id="path-effect1048"
       is_visible="true"
       lpeversion="1.1"
       mode="free"
       discard_orig_path="false"
       fuse_paths="false"
       oposite_fuse="false"
       split_items="false"
       split_open="false" />
    <inkscape:path-effect
       effect="fillet_chamfer"
       id="path-effect843"
       is_visible="true"
       lpeversion="1"
       satellites_param="F,0,0,1,0,2,0,1 @ F,0,0,1,0,2,0,1 @ F,0,0,1,0,2,0,1 @ F,0,0,1,0,2,0,1"
       unit="mm"
       method="auto"
       mode="F"
       radius="2"
       chamfer_steps="1"
       flexible="false"
       use_knot_distance="true"
       apply_no_radius="true"
       apply_with_radius="true"
       only_selected="false"
       hide_knots="false" />
    <inkscape:path-effect
       effect="mirror_symmetry"
       start_point="63.719352,117.26502"
       end_point="63.719352,197.14013"
       center_point="63.719352,157.20258"
       id="path-effect837"
       is_visible="true"
       lpeversion="1.1"
       mode="free"
       discard_orig_path="false"
       fuse_paths="false"
       oposite_fuse="false"
       split_items="false"
       split_open="false" />
    <inkscape:path-effect
       effect="mirror_symmetry"
       start_point="63.808595,119.04989"
       end_point="63.808595,198.92499"
       center_point="63.808595,158.98744"
       id="path-effect4193"
       is_visible="true"
       lpeversion="1.1"
       mode="free"
       discard_orig_path="false"
       fuse_paths="false"
       oposite_fuse="false"
       split_items="false"
       split_open="false" />
    <inkscape:path-effect
       effect="fillet_chamfer"
       id="path-effect3941"
       is_visible="true"
       lpeversion="1"
       satellites_param="F,0,0,1,0,2,0,1 @ F,0,0,1,0,2,0,1 @ F,0,0,1,0,2,0,1 @ F,0,0,1,0,2,0,1"
       unit="mm"
       method="auto"
       mode="F"
       radius="2"
       chamfer_steps="1"
       flexible="false"
       use_knot_distance="true"
       apply_no_radius="true"
       apply_with_radius="true"
       only_selected="false"
       hide_knots="false" />
    <inkscape:path-effect
       effect="mirror_symmetry"
       start_point="63.719352,117.26502"
       end_point="63.719352,197.14013"
       center_point="63.719352,157.20258"
       id="path-effect2439"
       is_visible="true"
       lpeversion="1.1"
       mode="free"
       discard_orig_path="false"
       fuse_paths="false"
       oposite_fuse="false"
       split_items="false"
       split_open="false" />
  </defs>
  <g
     inkscape:label="Calque 1"
     inkscape:groupmode="layer"
     id="layer1">
    <path
       id="path868"
       style="fill:#ffffff;fill-opacity:1;stroke:none;stroke-width:0.232673px;stroke-linecap:butt;stroke-linejoin:miter;stroke-opacity:1"
       d="m 150.50375,162.21315 c -1.45376,0.79796 3.36605,20.81518 9.09867,19.98496 -0.23302,1.44985 -0.78065,3.14236 -1.59755,5.00527 -2.63593,-2.48479 -4.95977,-5.20363 -8.1673,-9.10096 2.30421,5.46227 4.07002,9.18655 6.82982,11.85414 -1.19166,2.24827 -2.69743,4.67002 -4.46783,7.17316 -2.70613,-2.52791 -5.05992,-5.27973 -8.3357,-9.25998 2.23944,5.30872 3.97022,8.97618 6.59925,11.62706 -1.36602,1.80167 -2.85523,3.62801 -4.44709,5.44589 -3.97071,-4.04783 -7.48998,-8.37868 -11.03907,-12.69103 2.16937,5.77626 4.61986,11.2065 8.6606,15.31536 -1.76001,1.87948 -3.61993,3.73139 -5.56157,5.5175 -3.53113,-5.24563 -6.37421,-10.74685 -9.25849,-16.23281 1.36875,6.7459 3.00437,13.2754 6.81368,18.40783 -1.61068,1.38678 -3.26654,2.71933 -4.95677,3.98036 -3.27273,-4.98842 -5.96472,-10.19239 -8.69363,-15.38285 0.43428,6.56988 2.26962,12.47306 5.96112,17.33532 -1.38496,0.9464 -2.78691,1.83905 -4.20182,2.66716 -3.29262,-5.00881 -5.99691,-10.23639 -8.73802,-15.4501 0.88074,6.37764 2.88778,12.05549 6.31408,16.80025 -1.76208,0.92827 -3.53685,1.75152 -5.31372,2.44593 -2.653,-4.9655 -4.80405,-10.07326 -6.9885,-15.17173 0.24332,6.04609 1.57119,11.46929 4.16465,16.16517 -1.56067,0.48753 -3.11804,0.86872 -4.66441,1.1315 -2.79005,-5.13746 -5.01852,-10.43433 -7.2835,-15.72079 0.80136,6.03882 2.32567,11.38087 4.86092,16.03244 -2.33046,0.20333 -4.62637,0.11611 -6.86062,-0.31046 -2.23088,-4.64056 -6.034487,-8.66374 -9.588954,-9.4262 0,0 -4.795441,0.44557 -8.918445,2.79262 -4.253887,2.42157 -7.792049,6.86696 -4.609834,14.93542 6.266516,15.88868 22.673863,5.43743 22.673863,5.43743 2.42197,-2.24497 2.82229,-5.74196 2.00321,-9.34936 2.31859,0.26829 4.84872,0.0591 7.51698,-0.55039 2.17201,3.01686 4.88178,5.69235 8.23043,8.02857 -2.35763,-2.77111 -4.36378,-5.64177 -6.13899,-8.57815 1.47855,-0.43803 2.9923,-0.99007 4.52816,-1.63665 2.35894,3.32365 5.46363,6.21905 9.3948,8.63944 -2.68058,-3.15071 -4.90801,-6.43011 -6.85642,-9.78858 1.82041,-0.87672 3.66221,-1.87686 5.50823,-2.98221 2.51162,2.89663 5.6417,5.38438 9.47234,7.39787 -2.77955,-2.78624 -5.15905,-5.72125 -7.28549,-8.75016 1.4387,-0.9232 2.87477,-1.90444 4.29951,-2.93504 2.56451,2.81699 5.85007,5.22419 9.96471,7.13281 -2.85717,-2.86403 -5.29151,-5.88527 -7.46285,-9.00412 1.72453,-1.32857 3.42298,-2.72213 5.08099,-4.16283 2.30288,2.54486 5.27977,4.65824 9.21819,6.16183 -2.61737,-2.62366 -4.87943,-5.37941 -6.91022,-8.22101 2.06694,-1.89528 4.05463,-3.85291 5.92608,-5.8391 3.06993,2.57665 6.96851,4.47163 12.12135,5.36757 -3.64765,-2.40038 -6.85056,-5.07969 -9.78928,-7.92487 1.636,-1.85412 3.15701,-3.7167 4.54345,-5.56098 2.47795,1.84894 5.73742,3.10637 10.5388,4.1091 -3.78125,-2.48829 -6.50382,-4.46829 -8.83548,-6.46451 1.7634,-2.54437 3.23154,-5.02494 4.33518,-7.36476 2.47002,1.82291 5.71377,3.06747 10.47377,4.06156 -4.03556,-2.65564 -6.86497,-4.73241 -9.30038,-6.86774 0.83327,-2.33155 1.2232,-4.46805 1.08394,-6.31708 9.02959,0.10146 12.82223,-6.81775 15.91896,-14.66976 -3.96418,3.5587 -7.86433,10.00877 -11.93298,8.84731 -9.76288,-1.41832 -11.23198,-8.14187 -13.89461,-14.10176 -0.0126,0.004 -0.0244,0.009 -0.0364,0.015 z m -64.941604,61.7532 a 4.237895,4.7087726 60.121771 0 1 6.193648,1.32886 4.237895,4.7087726 60.121771 0 1 -1.971384,6.02034 4.237895,4.7087726 60.121771 0 1 -6.194265,-1.32902 4.237895,4.7087726 60.121771 0 1 1.972001,-6.02018 z" />
    <path
       style="fill:none;stroke:#23024d;stroke-width:1.5;stroke-linecap:round;stroke-linejoin:round;stroke-miterlimit:4;stroke-dasharray:none;stroke-opacity:1"
       d="m 49.529746,120.74549 c -2.714892,2.65118 -3.777783,5.95 1.249399,8.83504 0,0 -3.837416,1.6979 -1.427886,4.46214 0,0 -21.150539,3.74819 -22.935394,23.91706 -1.784856,20.16887 20.080916,28.18255 22.846154,26.41587 3.212741,-2.05259 5.176081,-1.60637 5.176081,-1.60637 m 4.908354,-62.02374 c 2.714892,2.65118 3.777783,5.95 -1.249399,8.83504 0,0 3.837416,1.6979 1.427886,4.46214 0,0 21.150539,3.74819 22.935394,23.91706 1.784856,20.16887 -20.080916,28.18255 -22.846154,26.41587 -3.212741,-2.05259 -5.176081,-1.60637 -5.176081,-1.60637"
       id="path9925"
       inkscape:path-effect="#path-effect9946"
       inkscape:original-d="m 49.529746,120.74549 c -2.714892,2.65118 -3.777783,5.95 1.249399,8.83504 0,0 -3.837416,1.6979 -1.427886,4.46214 0,0 -21.150539,3.74819 -22.935394,23.91706 -1.784856,20.16887 20.080916,28.18255 22.846154,26.41587 3.212741,-2.05259 5.176081,-1.60637 5.176081,-1.60637"
       sodipodi:nodetypes="cccssc"
       transform="matrix(3.3736261,0,0,3.3736261,-77.097909,-355.12837)" />
    <path
       style="fill:#d40000;fill-opacity:0.731225;stroke:none;stroke-width:0.892604px;stroke-linecap:butt;stroke-linejoin:miter;stroke-opacity:1"
       d="m 80.27938,254.08658 c 0,0 -33.06773,-11.20138 -44.55863,-27.09649 C 24.208,216.69017 13.33049,153.93023 44.15076,136.06641 l 127.65444,-1.8064 c 27.23451,26.2717 16.36715,73.50568 3.61287,94.53652 -3.78019,6.08282 -31.14043,30.05516 -43.95648,27.69862 -16.6426,-9.71362 -28.20796,-10.33865 -51.18221,-2.40857 z"
       id="potion"
       sodipodi:nodetypes="ccccccc" />
    <path
       id="path12474"
       style="opacity:0.985385;fill:#000000;fill-opacity:0.0632411;stroke:none;stroke-width:5.06044;stroke-linecap:round;stroke-linejoin:round;stroke-miterlimit:4;stroke-dasharray:none;stroke-opacity:1;paint-order:markers fill stroke"
       d="m 174.53832,152.82676 a 3.8320182,3.8320182 0 0 0 -3.83192,3.83194 3.8320182,3.8320182 0 0 0 3.83192,3.83192 3.8320182,3.8320182 0 0 0 3.83193,-3.83192 3.8320182,3.8320182 0 0 0 -3.83193,-3.83194 z m -129.011094,5.10982 a 2.554679,2.128899 0 0 0 -2.555788,2.12866 2.554679,2.128899 0 0 0 2.555788,2.12865 2.554679,2.128899 0 0 0 2.554029,-2.12865 2.554679,2.128899 0 0 0 -2.554029,-2.12866 z m 59.609294,18.30887 a 2.9804586,3.1933486 0 0 0 -2.98117,3.19211 2.9804586,3.1933486 0 0 0 2.98117,3.19385 2.9804586,3.1933486 0 0 0 2.97943,-3.19385 2.9804586,3.1933486 0 0 0 -2.97943,-3.19211 z m -12.986359,17.88174 a 4.0449081,4.0449081 0 0 0 -4.046371,4.04461 4.0449081,4.0449081 0 0 0 4.046371,4.04637 4.0449081,4.0449081 0 0 0 4.044616,-4.04637 4.0449081,4.0449081 0 0 0 -4.044616,-4.04461 z m -44.706976,2.98116 a 2.7675688,2.9804586 0 0 0 -2.768469,2.97942 2.7675688,2.9804586 0 0 0 2.768469,2.98117 2.7675688,2.9804586 0 0 0 2.766728,-2.98117 2.7675688,2.9804586 0 0 0 -2.766728,-2.97942 z m 31.507921,24.69483 a 7.0253671,7.0253671 0 0 0 -7.025786,7.02578 7.0253671,7.0253671 0 0 0 7.025786,7.02579 7.0253671,7.0253671 0 0 0 7.024035,-7.02579 7.0253671,7.0253671 0 0 0 -7.024035,-7.02578 z m 71.955834,8.08923 a 2.3417891,2.7675688 0 0 0 -2.34135,2.76848 2.3417891,2.7675688 0 0 0 2.34135,2.76673 2.3417891,2.7675688 0 0 0 2.34135,-2.76673 2.3417891,2.7675688 0 0 0 -2.34135,-2.76848 z" />
    <path
       style="fill:#50162d;stroke:#280b17;stroke-width:5.06044;stroke-linecap:butt;stroke-linejoin:miter;stroke-miterlimit:4;stroke-dasharray:none;stroke-opacity:1"
       d="m 101.13659,70.587152 7.82788,0.300927 c 5.28348,-13.765608 7.05927,-21.508759 9.33322,-30.10719 -7.3775,-14.202825 -15.27381,-10.182034 -21.677171,-1.806402 0.325017,10.537551 0.309021,21.075114 4.516071,31.612665 z"
       id="path14359"
       sodipodi:nodetypes="ccccc" />
    <path
       id="path11868"
       style="fill:#ffffff;fill-opacity:0.371542;stroke:none;stroke-width:1.22417px;stroke-linecap:butt;stroke-linejoin:miter;stroke-opacity:1"
       d="M 57.238281,200.44087 C 60.332167,156.7643 80.570149,131.22293 119.28665,125.22889 52.469759,111.14542 41.630926,144.57097 57.238281,200.44087 Z"
       sodipodi:nodetypes="ccc" />
    <path
       id="path6421"
       style="fill:#ffffff;fill-opacity:0.34387353;stroke:none;stroke-width:0.232673px;stroke-linecap:butt;stroke-linejoin:miter;stroke-opacity:1"
       d="m 150.50375,162.21315 c -1.45376,0.79796 3.36605,20.81518 9.09867,19.98496 -0.23302,1.44985 -0.78065,3.14236 -1.59755,5.00527 -2.63593,-2.48479 -4.95977,-5.20363 -8.1673,-9.10096 2.30421,5.46227 4.07002,9.18655 6.82982,11.85414 -1.19166,2.24827 -2.69743,4.67002 -4.46783,7.17316 -2.70613,-2.52791 -5.05992,-5.27973 -8.3357,-9.25998 2.23944,5.30872 3.97022,8.97618 6.59925,11.62706 -1.36602,1.80167 -2.85523,3.62801 -4.44709,5.44589 -3.97071,-4.04783 -7.48998,-8.37868 -11.03907,-12.69103 2.16937,5.77626 4.61986,11.2065 8.6606,15.31536 -1.76001,1.87948 -3.61993,3.73139 -5.56157,5.5175 -3.53113,-5.24563 -6.37421,-10.74685 -9.25849,-16.23281 1.36875,6.7459 3.00437,13.2754 6.81368,18.40783 -1.61068,1.38678 -3.26654,2.71933 -4.95677,3.98036 -3.27273,-4.98842 -5.96472,-10.19239 -8.69363,-15.38285 0.43428,6.56988 2.26962,12.47306 5.96112,17.33532 -1.38496,0.9464 -2.78691,1.83905 -4.20182,2.66716 -3.29262,-5.00881 -5.99691,-10.23639 -8.73802,-15.4501 0.88074,6.37764 2.88778,12.05549 6.31408,16.80025 -1.76208,0.92827 -3.53685,1.75152 -5.31372,2.44593 -2.653,-4.9655 -4.80405,-10.07326 -6.9885,-15.17173 0.24332,6.04609 1.57119,11.46929 4.16465,16.16517 -1.56067,0.48753 -3.11804,0.86872 -4.66441,1.1315 -2.79005,-5.13746 -5.01852,-10.43433 -7.2835,-15.72079 0.80136,6.03882 2.32567,11.38087 4.86092,16.03244 -2.33046,0.20333 -4.62637,0.11611 -6.86062,-0.31046 -2.23088,-4.64056 -6.034487,-8.66374 -9.588954,-9.4262 0,0 -4.795441,0.44557 -8.918445,2.79262 -4.253887,2.42157 -7.792049,6.86696 -4.609834,14.93542 6.266516,15.88868 22.673863,5.43743 22.673863,5.43743 2.42197,-2.24497 2.82229,-5.74196 2.00321,-9.34936 2.31859,0.26829 4.84872,0.0591 7.51698,-0.55039 2.17201,3.01686 4.88178,5.69235 8.23043,8.02857 -2.35763,-2.77111 -4.36378,-5.64177 -6.13899,-8.57815 1.47855,-0.43803 2.9923,-0.99007 4.52816,-1.63665 2.35894,3.32365 5.46363,6.21905 9.3948,8.63944 -2.68058,-3.15071 -4.90801,-6.43011 -6.85642,-9.78858 1.82041,-0.87672 3.66221,-1.87686 5.50823,-2.98221 2.51162,2.89663 5.6417,5.38438 9.47234,7.39787 -2.77955,-2.78624 -5.15905,-5.72125 -7.28549,-8.75016 1.4387,-0.9232 2.87477,-1.90444 4.29951,-2.93504 2.56451,2.81699 5.85007,5.22419 9.96471,7.13281 -2.85717,-2.86403 -5.29151,-5.88527 -7.46285,-9.00412 1.72453,-1.32857 3.42298,-2.72213 5.08099,-4.16283 2.30288,2.54486 5.27977,4.65824 9.21819,6.16183 -2.61737,-2.62366 -4.87943,-5.37941 -6.91022,-8.22101 2.06694,-1.89528 4.05463,-3.85291 5.92608,-5.8391 3.06993,2.57665 6.96851,4.47163 12.12135,5.36757 -3.64765,-2.40038 -6.85056,-5.07969 -9.78928,-7.92487 1.636,-1.85412 3.15701,-3.7167 4.54345,-5.56098 2.47795,1.84894 5.73742,3.10637 10.5388,4.1091 -3.78125,-2.48829 -6.50382,-4.46829 -8.83548,-6.46451 1.7634,-2.54437 3.23154,-5.02494 4.33518,-7.36476 2.47002,1.82291 5.71377,3.06747 10.47377,4.06156 -4.03556,-2.65564 -6.86497,-4.73241 -9.30038,-6.86774 0.83327,-2.33155 1.2232,-4.46805 1.08394,-6.31708 9.02959,0.10146 12.82223,-6.81775 15.91896,-14.66976 -3.96418,3.5587 -7.86433,10.00877 -11.93298,8.84731 -9.76288,-1.41832 -11.23198,-8.14187 -13.89461,-14.10176 -0.0126,0.004 -0.0244,0.009 -0.0364,0.015 z m -64.941604,61.7532 a 4.237895,4.7087726 60.121771 0 1 6.193648,1.32886 4.237895,4.7087726 60.121771 0 1 -1.971384,6.02034 4.237895,4.7087726 60.121771 0 1 -6.194265,-1.32902 4.237895,4.7087726 60.121771 0 1 1.972001,-6.02018 z" />
  </g>
</svg>
